<svg width="58" height="59" viewBox="0 0 58 59" fill="none" xmlns="http://www.w3.org/2000/svg">
<g clip-path="url(#clip0_3646_46860)">
<path d="M20.24 30.2702V20.1802C20.24 19.0402 19.81 18.1202 18.89 17.3402C17.97 16.5602 16.9 16.2002 15.69 16.2002C14.48 16.2002 13.49 16.5602 12.56 17.3402C11.64 18.0502 11.21 19.0502 11.21 20.2502V30.5502" fill="#E7E2F2"/>
<path d="M20.24 30.2702V20.1802C20.24 19.0402 19.81 18.1202 18.89 17.3402C17.97 16.5602 16.9 16.2002 15.69 16.2002C14.48 16.2002 13.49 16.5602 12.56 17.3402C11.64 18.0502 11.21 19.0502 11.21 20.2502V30.5502" stroke="#1C1B1A" stroke-width="2" stroke-miterlimit="10"/>
<path d="M25.85 7.61V1H30.89V11.16" fill="#FEE7E7"/>
<path d="M25.85 7.61V1H30.89V11.16" stroke="#1C1B1A" stroke-width="2" stroke-linejoin="round"/>
<path d="M20.24 30.5501H5.67C5.24 30.5501 4.96 30.2701 4.96 29.8401L4.89 11.7901C4.96 11.5101 4.61 11.1501 4.25 11.1501H1.34C0.910005 11.1501 0.910005 10.9401 1.2 10.7201L13.06 1.85012C13.34 1.64012 13.91 1.57012 14.27 1.78012L38 14.4301C38.36 14.6401 38.28 14.7901 37.93 14.7901L31.89 14.8601C31.53 14.8601 31.18 15.2201 31.18 15.5701V25.7801M4.25 11.1601H2.83" stroke="#1C1B1A" stroke-width="2" stroke-miterlimit="10"/>
<path d="M13.7 24.7999C14.09 24.7999 14.41 24.4799 14.41 24.0899C14.41 23.6999 14.09 23.3799 13.7 23.3799C13.31 23.3799 12.99 23.6999 12.99 24.0899C12.99 24.4799 13.31 24.7999 13.7 24.7999Z" fill="#1C1B1A"/>
<path d="M25.42 18.7598V25.5598" stroke="#1C1B1A" stroke-width="2" stroke-miterlimit="10"/>
<path d="M45.39 21.8198H25.64" stroke="#1C1B1A" stroke-width="2" stroke-miterlimit="10"/>
<path d="M41.84 22.3799V25.4299" stroke="#1C1B1A" stroke-width="2" stroke-miterlimit="10"/>
<g opacity="0.1">
<path d="M13.06 1.91992L35.79 14.1399" stroke="#1C1B1A" stroke-width="4" stroke-miterlimit="10"/>
</g>
<path d="M54.09 48.9298H47.62C47.62 47.1498 48.26 45.9498 49.54 44.6698C50.82 43.3898 52.31 42.8198 54.09 42.8198V48.9298Z" fill="#E7E2F2"/>
<path d="M47.62 49.2198C47.62 47.4398 48.26 45.9498 49.54 44.6698C50.82 43.3898 52.31 42.8198 54.09 42.8198" stroke="#1C1B1A" stroke-width="2" stroke-miterlimit="10"/>
<path d="M20.55 25.77H27.0201C27.0201 27.55 26.38 28.75 25.1 30.03C23.8201 31.31 22.33 31.95 20.55 31.95V25.77Z" fill="#E7E2F2"/>
<path d="M27.0201 25.7002C27.0201 27.4802 26.38 28.9702 25.1 30.2502C23.8201 31.5302 22.33 32.1002 20.55 32.1002" stroke="#1C1B1A" stroke-width="2" stroke-miterlimit="10"/>
<path d="M44.85 28.8303C44.28 27.9803 44 26.9803 44 25.7803H50.47V28.8303C50.47 28.9003 45.14 29.2603 44.86 28.8303H44.85Z" fill="#E7E2F2"/>
<path d="M44.71 28.6802C44.21 27.7602 44 26.7602 44 25.7002" stroke="#1C1B1A" stroke-width="2" stroke-miterlimit="10"/>
<path d="M20.27 43.1801V26.2701C20.27 25.8401 20.63 25.5601 20.98 25.5601H49.75C50.18 25.5601 50.46 25.8401 50.46 26.2701V28.9001" stroke="#1C1B1A" stroke-width="2" stroke-miterlimit="10"/>
<path d="M39.1 43.1803C38.03 43.1803 37.18 42.8203 36.47 42.1103C35.76 41.4003 35.4 40.5503 35.4 39.4803C35.4 38.4103 35.76 37.5603 36.47 36.8503C37.18 36.1403 38.03 35.7803 39.1 35.7803C40.17 35.7803 41.02 36.1403 41.73 36.8503C42.44 37.5603 42.8 38.4103 42.8 39.4803C42.8 40.5503 42.44 41.4003 41.73 42.1103C41.02 42.8203 40.17 43.1803 39.1 43.1803Z" fill="#E7E2F2" stroke="#1C1B1A" stroke-width="2" stroke-miterlimit="10"/>
<path d="M24.11 29.25H30.58C30.58 31.03 29.94 32.23 28.66 33.51C27.38 34.79 25.89 35.36 24.11 35.36V29.25Z" fill="#E7E2F2"/>
<path d="M30.57 29.1099C30.57 30.8899 29.93 32.3799 28.65 33.6599C27.37 34.9399 25.88 35.5099 24.1 35.5099" stroke="#1C1B1A" stroke-width="2" stroke-miterlimit="10"/>
<path d="M54.0201 35.36C52.2401 35.36 50.6801 34.72 49.4701 33.51C48.1901 32.23 47.55 31.02 47.55 29.25H54.0201V35.36Z" fill="#E7E2F2"/>
<path d="M54.0201 35.5001C52.2401 35.5001 50.6801 34.8601 49.4701 33.6501C48.1901 32.3701 47.55 30.8801 47.55 29.1001" stroke="#1C1B1A" stroke-width="2" stroke-miterlimit="10"/>
<path d="M23.89 41.61V29.67C23.89 29.24 24.25 28.96 24.6 28.96H53.37C53.8 28.96 54.08 29.24 54.08 29.67V48.92" stroke="#1C1B1A" stroke-width="2" stroke-miterlimit="10"/>
<path opacity="0.1" d="M27.66 39.4099C27.8 39.3399 28.02 39.3399 28.16 39.4099L42.65 43.3899C43.36 43.5999 43.86 44.0299 44.21 44.5999C44.42 44.9599 44.49 45.7399 44.49 47.7999V48.6499L53.51 48.0799V46.3699L46.12 46.8699C46.12 44.8099 46.12 44.0299 45.69 43.3899C45.19 42.6099 44.48 42.0399 43.56 41.7599L28.71 37.7799C28.35 37.7099 28 37.7099 27.64 37.8499L24.23 39.1999V40.8299L27.64 39.4099H27.66Z" fill="#1C1B1A"/>
<path d="M19.49 43.6699L27.94 40.3999L42.79 44.3799C43.29 44.5199 43.71 44.8099 43.93 45.2999C44.21 45.7299 44 48.8499 44.07 49.5599M34.48 47.0699L40.23 49.8399L54.65 48.9199C55.15 48.8499 55.57 49.0599 56 49.4199C56.43 49.8499 56.78 50.2699 56.99 50.8399L43.21 57.3799L42.85 57.4499L24.88 53.3299L17.14 56.7399" stroke="#1C1B1A" stroke-width="2" stroke-linejoin="round"/>
<path d="M13.73 56.7501C13.73 57.1801 14.01 57.4601 14.44 57.4601H18.77C19.13 57.4601 19.48 57.1801 19.48 56.7501V42.0401C19.48 41.6101 19.12 41.3301 18.77 41.3301H14.44C14.01 41.3301 13.73 41.6101 13.73 42.0401V56.7501Z" fill="#FEE7E7"/>
<path d="M13.73 56.7501C13.73 57.1801 14.01 57.4601 14.44 57.4601H18.77C19.13 57.4601 19.48 57.1801 19.48 56.7501V42.0401C19.48 41.6101 19.12 41.3301 18.77 41.3301H14.44C14.01 41.3301 13.73 41.6101 13.73 42.0401V56.7501Z" stroke="#1C1B1A" stroke-width="2" stroke-miterlimit="10"/>
</g>
<defs>
<clipPath id="clip0_3646_46860">
<rect width="58" height="58.46" fill="white"/>
</clipPath>
</defs>
</svg>
