<svg width="58" height="53" viewBox="0 0 58 53" fill="none" xmlns="http://www.w3.org/2000/svg">
<path d="M25.2707 37.9275V25.2C25.2707 23.7659 24.7329 22.6007 23.5678 21.6148C22.4026 20.6288 21.0581 20.1807 19.5344 20.1807C18.0107 20.1807 16.7558 20.6288 15.5906 21.6148C14.4254 22.5111 13.8877 23.7659 13.8877 25.2896V38.286" fill="#E7E2F2"/>
<path d="M25.2707 37.9275V25.2C25.2707 23.7659 24.7329 22.6007 23.5678 21.6148C22.4026 20.6288 21.0581 20.1807 19.5344 20.1807C18.0107 20.1807 16.7558 20.6288 15.5906 21.6148C14.4254 22.5111 13.8877 23.7659 13.8877 25.2896V38.286" stroke="#1C1B1A" stroke-width="2" stroke-miterlimit="10"/>
<path d="M32.3516 9.33563V1H38.7154V13.8172" fill="#FEE7E7"/>
<path d="M32.3516 9.33563V1H38.7154V13.8172" stroke="#1C1B1A" stroke-width="2" stroke-linejoin="round"/>
<path d="M5.10398 13.8173H1.42913C0.891346 13.8173 0.891346 13.5484 1.24987 13.2795L16.2182 2.07572C16.5767 1.80683 17.2937 1.71719 17.7419 1.98609L47.6784 17.9403C48.1266 18.2092 48.037 18.3885 47.5888 18.3885L39.9702 18.4781C39.5221 18.4781 39.0739 18.9262 39.0739 19.3744V37.3901C39.0739 37.8383 38.6258 38.2864 38.1776 38.2864H6.89659C6.3588 38.2864 6.00028 37.9279 6.00028 37.3901L5.91065 14.624C6.00028 14.2655 5.55213 13.8173 5.10398 13.8173ZM5.10398 13.8173H3.31137" stroke="#1C1B1A" stroke-width="2" stroke-miterlimit="10"/>
<path d="M17.0252 31.026C17.5202 31.026 17.9215 30.6247 17.9215 30.1297C17.9215 29.6347 17.5202 29.2334 17.0252 29.2334C16.5302 29.2334 16.1289 29.6347 16.1289 30.1297C16.1289 30.6247 16.5302 31.026 17.0252 31.026Z" fill="#1C1B1A"/>
<path d="M36.5645 32.7293C36.5645 32.2812 37.0126 31.833 37.4608 31.833H55.2076C55.7454 31.833 56.1039 32.2812 56.1039 32.7293V43.7539C56.1039 44.202 55.7454 44.6502 55.2076 44.6502H37.4608C37.0126 44.6502 36.5645 44.202 36.5645 43.7539V32.7293Z" fill="#FEE7E7"/>
<path d="M36.5645 32.7293C36.5645 32.2812 37.0126 31.833 37.4608 31.833H55.2076C55.7454 31.833 56.1039 32.2812 56.1039 32.7293V43.7539C56.1039 44.202 55.7454 44.6502 55.2076 44.6502H37.4608C37.0126 44.6502 36.5645 44.202 36.5645 43.7539V32.7293Z" stroke="#1C1B1A" stroke-width="2" stroke-miterlimit="10"/>
<path d="M31.8135 23.4077V52.2687" stroke="#1C1B1A" stroke-width="2" stroke-miterlimit="10"/>
<path d="M57.0003 27.2617H32.083" stroke="#1C1B1A" stroke-width="2" stroke-miterlimit="10"/>
<path d="M52.5185 27.979V31.8331" stroke="#1C1B1A" stroke-width="2" stroke-miterlimit="10"/>
<g opacity="0.1">
<path d="M16.2178 2.16504L44.8995 17.5815" stroke="#1C1B1A" stroke-width="4" stroke-miterlimit="10"/>
</g>
<path d="M48.9329 41.244H43.7344V37.0314L46.3337 35.2388L48.9329 37.0314V41.244Z" fill="white" stroke="#1C1B1A" stroke-width="2" stroke-miterlimit="10"/>
</svg>
