<svg width="54" height="40" viewBox="0 0 54 40" fill="none" xmlns="http://www.w3.org/2000/svg">
<path d="M38.5342 4.84501C37.8656 3.84202 37.5313 2.67187 37.5313 1.25098H45.1372V4.84501C45.1372 4.92859 38.8686 5.3465 38.5342 4.84501Z" fill="#E7E2F2"/>
<path d="M9.94917 1.25098H17.5551C17.5551 3.34053 16.8029 4.76142 15.2984 6.2659C13.7939 7.77038 12.0387 8.52262 9.94917 8.52262V1.25098Z" fill="#E7E2F2"/>
<path d="M17.5551 1.16699C17.5551 3.25654 16.8029 5.01177 15.2984 6.51625C13.7939 8.02072 12.0387 8.68938 9.94917 8.68938" stroke="#1C1B1A" stroke-width="2" stroke-miterlimit="10"/>
<path d="M38.3671 4.67744C37.782 3.59087 37.5313 2.42072 37.5313 1.16699" stroke="#1C1B1A" stroke-width="2" stroke-miterlimit="10"/>
<path d="M9.61485 21.7284V1.83582C9.61485 1.33433 10.0328 1 10.4507 1H44.3014C44.8029 1 45.1372 1.33433 45.1372 1.83582V4.92836" stroke="#1C1B1A" stroke-width="2" stroke-miterlimit="10"/>
<path d="M49.3163 12.5343C47.2268 12.5343 45.388 11.782 43.9671 10.3611C42.4626 8.85664 41.7104 7.43574 41.7104 5.34619H49.3163V12.5343Z" fill="#E7E2F2"/>
<path d="M49.3999 28.4981H41.794C41.794 26.4086 42.5462 24.9877 44.0507 23.4832C45.5551 21.9787 47.3104 21.3101 49.3999 21.3101V28.4981Z" fill="#E7E2F2"/>
<path d="M14.1283 5.34619H21.7343C21.7343 7.43574 20.982 8.85664 19.4775 10.3611C17.9731 11.8656 16.2178 12.5343 14.1283 12.5343V5.34619Z" fill="#E7E2F2"/>
<path d="M31.7641 21.7282C30.5104 21.7282 29.5074 21.3103 28.6716 20.4744C27.8357 19.6386 27.4178 18.6356 27.4178 17.3819C27.4178 16.1282 27.8357 15.1252 28.6716 14.2894C29.5074 13.4536 30.5104 13.0356 31.7641 13.0356C33.0178 13.0356 34.0208 13.4536 34.8566 14.2894C35.6925 15.1252 36.1104 16.1282 36.1104 17.3819C36.1104 18.6356 35.6925 19.6386 34.8566 20.4744C34.0208 21.3103 33.0178 21.7282 31.7641 21.7282Z" fill="#E7E2F2" stroke="#1C1B1A" stroke-width="2" stroke-miterlimit="10"/>
<path d="M21.7343 5.17871C21.7343 7.26826 20.982 9.02349 19.4775 10.528C17.9731 12.0324 16.2178 12.7011 14.1283 12.7011" stroke="#1C1B1A" stroke-width="2" stroke-miterlimit="10"/>
<path d="M49.3163 12.7011C47.2268 12.7011 45.388 11.9489 43.9671 10.528C42.4626 9.02349 41.7104 7.26826 41.7104 5.17871" stroke="#1C1B1A" stroke-width="2" stroke-miterlimit="10"/>
<path d="M13.8775 19.8893V5.84754C13.8775 5.34605 14.2954 5.01172 14.7134 5.01172H48.5641C49.0656 5.01172 49.3999 5.34605 49.3999 5.84754V28.4983" stroke="#1C1B1A" stroke-width="2" stroke-miterlimit="10"/>
<path d="M41.794 28.8324C41.794 26.7429 42.5462 24.9877 44.0507 23.4832C45.5551 21.9787 47.3104 21.3101 49.3999 21.3101" stroke="#1C1B1A" stroke-width="2" stroke-miterlimit="10"/>
<path opacity="0.1" d="M18.3074 17.2986C18.4745 17.215 18.7253 17.215 18.8925 17.2986L35.9432 21.9792C36.779 22.2299 37.3641 22.7314 37.782 23.4001C38.0328 23.818 38.1163 24.7374 38.1163 27.1613C38.1163 27.4956 38.1163 27.8299 38.1163 28.1643L48.7313 27.4956V25.4896L40.0387 26.0747C40.0387 23.6508 40.0387 22.7314 39.5372 21.9792C38.9522 21.0598 38.1163 20.3911 37.0298 20.0568L19.5611 15.3762C19.1432 15.2926 18.7253 15.2926 18.3074 15.4598L14.2954 17.0478V18.9702L18.3074 17.2986Z" fill="#1C1B1A"/>
<path d="M8.69544 21.8956L18.6417 18.0508L36.1104 22.7314C36.6954 22.8985 37.1969 23.2329 37.4477 23.8179C37.782 24.3194 37.5313 27.997 37.6148 28.8329M26.3313 25.9075L33.1014 29.1672L50.0686 28.0806C50.6537 27.9971 51.1551 28.2478 51.6566 28.6657C52.1581 29.1672 52.576 29.6687 52.8268 30.3373L36.6119 38.0269L36.194 38.1105L15.0477 33.2627L5.93723 37.2747" fill="white"/>
<path d="M8.69544 21.8956L18.6417 18.0508L36.1104 22.7314C36.6954 22.8985 37.1969 23.2329 37.4477 23.8179C37.782 24.3194 37.5313 27.997 37.6148 28.8329M26.3313 25.9075L33.1014 29.1672L50.0686 28.0806C50.6537 27.9971 51.1551 28.2478 51.6566 28.6657C52.1581 29.1672 52.576 29.6687 52.8268 30.3373L36.6119 38.0269L36.194 38.1105L15.0477 33.2627L5.93723 37.2747" stroke="#1C1B1A" stroke-width="2" stroke-miterlimit="10" stroke-linejoin="round"/>
<path d="M1.92529 37.2745C1.92529 37.776 2.25962 38.1103 2.76111 38.1103H7.85962C8.27753 38.1103 8.69544 37.776 8.69544 37.2745V19.973C8.69544 19.4715 8.27753 19.1372 7.85962 19.1372H2.76111C2.25962 19.1372 1.92529 19.4715 1.92529 19.973V37.2745Z" fill="#FEE7E7"/>
<path d="M1.92529 37.2745C1.92529 37.776 2.25962 38.1103 2.76111 38.1103H7.85962C8.27753 38.1103 8.69544 37.776 8.69544 37.2745V19.973C8.69544 19.4715 8.27753 19.1372 7.85962 19.1372H2.76111C2.25962 19.1372 1.92529 19.4715 1.92529 19.973V37.2745Z" stroke="#1C1B1A" stroke-width="2" stroke-miterlimit="10"/>
</svg>
